<svg xmlns="http://www.w3.org/2000/svg" width="87" height="87" viewBox="0 0 87 87">
  <g id="Groupe_828" data-name="Groupe 828" transform="translate(-1249 -120)">
    <circle id="Ellipse_290" data-name="Ellipse 290" cx="43.5" cy="43.5" r="43.5" transform="translate(1249 120)" fill="#c2736c"/>
    <circle id="Ellipse_291" data-name="Ellipse 291" cx="32" cy="32" r="32" transform="translate(1260 131)" fill="#fff"/>
    <path id="Union_38" data-name="Union 38" d="M18.109,39.114l-3.364-13.9H14.15l-3.364,13.9a1.8,1.8,0,0,1-3.5-.849l3.158-13.046h-.008V15.064l-6.4-3.377a1.385,1.385,0,0,1-.545-.53L.184,5.42a1.386,1.386,0,0,1,2.4-1.381l3.1,5.394,5.392,2.9h5.535l3.432-4.459.7-6.632a1.386,1.386,0,0,1,2.758.291l-.743,7.021a1.386,1.386,0,0,1-.28.7l-4.1,5.322V24.953l3.223,13.312a1.8,1.8,0,0,1-3.5.849ZM11.192,7.887A3.114,3.114,0,1,1,14.306,11,3.113,3.113,0,0,1,11.192,7.887Z" transform="translate(1280 142.999)" fill="#c2736c"/>
  </g>
</svg>
