<svg xmlns="http://www.w3.org/2000/svg" width="1403" height="568.695" viewBox="0 0 1403 568.695">
  <g id="Groupe_798" data-name="Groupe 798" transform="translate(37 -3770)">
    <g id="Groupe_657" data-name="Groupe 657" transform="translate(-781.052 2471.732)">
      <path id="Tracé_370" data-name="Tracé 370" d="M3315.391,876.727c-16.326,48.245,3.07,56.053,32.569,43.188,38.664,12.327,60.685-1.891,35.265-49.928l-9.271-20.449-41.831-2.092-16.732,29.281h0" transform="translate(-2292.958 514.486)" fill="#543776" style="isolation: isolate"/>
      <path id="Tracé_371" data-name="Tracé 371" d="M3326.693,878.791c1.37,8.931-2.131,15.567-8.366,20.915,6.274,18.824,29.221,14.641,43.862,0-6.682-5.892-9.352-13.225-8.306-25.1Z" transform="translate(-2283.261 544.134)" fill="#ffd7c5" style="isolation: isolate"/>
      <path id="Tracé_372" data-name="Tracé 372" d="M3438.549,978.319c2.3-42.332-7.506-74.514-55.61-93.338-12.026,15.362-24.711,17.656-40.659,3.4-40.282,17.385-45.585,51.819-45.953,89.935" transform="translate(-2307.274 555.456)" fill="#ffd7c5" style="isolation: isolate"/>
      <path id="Tracé_373" data-name="Tracé 373" d="M3314.3,871.142c10.458,58.836,48.1,56.874,58.562,0-6.068-12.009-18.146-19.1-33.464-23.534Z" transform="translate(-2287.659 514.663)" fill="#ffd7c5" style="isolation: isolate"/>
      <path id="Tracé_374" data-name="Tracé 374" d="M3339.726,842.318c34.522-4.185,42.464,13.156,42.393,40.529-12.835-1.554-39.659-10.037-37.281-15-6.018,11.1-16.437,9.828-31.544,15.73-5.892-25.61,2.87-37.877,26.433-41.263" transform="translate(-2290.695 508.21)" fill="#543776" style="isolation: isolate"/>
      <ellipse id="Ellipse_219" data-name="Ellipse 219" cx="3.137" cy="4.183" rx="3.137" ry="4.183" transform="translate(1041.28 1389.461)" fill="#543776" style="isolation: isolate"/>
      <ellipse id="Ellipse_220" data-name="Ellipse 220" cx="3.137" cy="4.183" rx="3.137" ry="4.183" transform="translate(1064.287 1389.461)" fill="#543776" style="isolation: isolate"/>
      <path id="Tracé_375" data-name="Tracé 375" stroke="#efa08e" d="M3335.07,873.131" fill="none" transform="translate(-2264.986 542.522)" stroke-linecap="round" stroke-linejoin="round" stroke-width="0.5" style="isolation: isolate"/>
      <path id="Tracé_376" data-name="Tracé 376" stroke="#efa08e" d="M3334.07,869.131" fill="none" transform="translate(-2266.078 538.156)" stroke-linecap="round" stroke-linejoin="round" stroke-width="0.5" style="isolation: isolate"/>
      <rect id="Rectangle_2228" data-name="Rectangle 2228" width="2.092" height="8.366" rx="0.5" transform="translate(1053.829 1397.827)" fill="#efa08e" style="isolation: isolate"/>
      <path id="Tracé_377" data-name="Tracé 377" d="M3416.88,978.689c-16.1-12.112-14.226-39.124-19.8-82.069-1.124-7.734-14.076-8.358-23.012-11.855-12.026,15.362-24.711,17.657-40.662,3.4-6.176,2.667-15.057,3.495-16.169,9.15-6.569,33.422,4.024,61.1-12.647,81.878" transform="translate(-2298.254 555.221)" fill="#ffefd4" style="isolation: isolate"/>
      <rect id="Rectangle_2229" data-name="Rectangle 2229" width="6.051" height="18.8" rx="3.026" transform="translate(1078.775 1372.132) rotate(60)" fill="#ffefd4"/>
      <path id="Tracé_390" data-name="Tracé 390" d="M3.026,0A3.026,3.026,0,0,1,6.051,3.026V15.774a3.026,3.026,0,1,1-6.051,0V3.026A3.026,3.026,0,0,1,3.026,0Z" transform="translate(1087.936 1376.137) rotate(60)" fill="#ffefd4"/>
      <path id="Rectangle_2235" data-name="Rectangle 2235" d="M0,0H10.368a0,0,0,0,1,0,0V.17A5.184,5.184,0,0,1,5.184,5.354h0A5.184,5.184,0,0,1,0,.17V0A0,0,0,0,1,0,0Z" transform="translate(1050.24 1411.047)" fill="#fff"/>
    </g>
    <g id="Groupe_733" data-name="Groupe 733" transform="translate(-438 2416.199)">
      <path id="Tracé_363" data-name="Tracé 363" d="M3216.86,893.544c11.532,43.569,28.059,67.244,50.571,67.059,24.565,1.546,42.7-20.58,53.351-70.306l-12.99-38.971-64.951-3.248-25.981,45.466h0" transform="translate(-2764.029 524.396)" fill="#9c636a" style="isolation: isolate"/>
      <path id="Tracé_364" data-name="Tracé 364" d="M3235.89,881.735c2.127,13.864-3.309,24.172-12.99,32.476,9.742,29.228,45.372,22.733,68.1,0-10.376-9.148-14.52-20.535-12.9-38.971Z" transform="translate(-2750.454 585.445)" fill="#ffd7c5" style="isolation: isolate"/>
      <path id="Tracé_365" data-name="Tracé 365" d="M3421.735,1030.542c3.573-65.731-11.655-115.7-86.349-144.929-18.673,23.853-38.369,27.416-63.133,5.284-62.548,26.994-70.784,80.461-71.353,139.645" transform="translate(-2799.9 608.758)" fill="#ff9f8b" style="isolation: isolate"/>
      <path id="Tracé_366" data-name="Tracé 366" d="M3218.873,884.782c16.238,91.357,74.693,88.311,90.931,0-9.422-18.648-28.179-29.654-51.961-36.542Z" transform="translate(-2759.51 524.76)" fill="#ffd7c5" style="isolation: isolate"/>
      <path id="Tracé_367" data-name="Tracé 367" d="M3259.887,843.293c53.608-6.5,65.938,20.424,65.828,62.928-15.711-8.531-10.139-23.454-11.077-25.042-9.347,17.238-72.333,17.02-95.79,26.185-9.148-39.766,4.456-58.813,41.039-64.071" transform="translate(-2765.76 511.473)" fill="#9c636a" style="isolation: isolate"/>
      <ellipse id="Ellipse_217" data-name="Ellipse 217" cx="4.871" cy="6.495" rx="4.871" ry="6.495" transform="translate(482.094 1415.219)" fill="#9c636a" style="isolation: isolate"/>
      <ellipse id="Ellipse_218" data-name="Ellipse 218" cx="4.871" cy="6.495" rx="4.871" ry="6.495" transform="translate(517.817 1415.219)" fill="#9c636a" style="isolation: isolate"/>
      <path id="Tracé_368" data-name="Tracé 368" stroke="#efa08e" d="M3239.643,873.762" fill="none" transform="translate(-2712.822 582.123)" stroke-linecap="round" stroke-linejoin="round" stroke-width="0.5" style="isolation: isolate"/>
      <path id="Tracé_369" data-name="Tracé 369" stroke="#efa08e" d="M3238.643,869.762" fill="none" transform="translate(-2715.07 573.133)" stroke-linecap="round" stroke-linejoin="round" stroke-width="0.5" style="isolation: isolate"/>
      <rect id="Rectangle_2226" data-name="Rectangle 2226" width="3.248" height="12.99" rx="0.5" transform="translate(501.579 1428.209)" fill="#efa08e" style="isolation: isolate"/>
      <path id="Rectangle_2231" data-name="Rectangle 2231" d="M0,0H16.1a0,0,0,0,1,0,0V0A6.205,6.205,0,0,1,9.894,6.205H6.205A6.205,6.205,0,0,1,0,0V0A0,0,0,0,1,0,0Z" transform="translate(495.509 1449.847)" fill="#fff"/>
    </g>
    <g id="Groupe_732" data-name="Groupe 732" transform="translate(349 3631.771)">
      <g id="Groupe_605" data-name="Groupe 605" transform="translate(861 211.866)">
        <g id="Calque_26" data-name="Calque 26" transform="translate(36.56 16.652)">
          <path id="Tracé_285" data-name="Tracé 285" d="M3218,781.048c8.129,30.711,19.778,47.4,35.647,47.269,17.315,1.09,30.1-14.5,37.606-49.558l-9.156-27.47L3236.313,749,3218,781.048h0" transform="translate(-3217.999 -749)" fill="#9c636a"/>
        </g>
        <g id="Calque_27" data-name="Calque 27" transform="translate(0 0)">
          <path id="Tracé_286" data-name="Tracé 286" d="M3233.186,780.578c1.5,9.772-2.332,17.038-9.156,22.891,6.867,20.6,31.981,16.024,48.006,0-7.314-6.449-10.235-14.474-9.091-27.47Z" transform="translate(-3173.668 -697.541)" fill="#ffb49d"/>
          <path id="Tracé_287" data-name="Tracé 287" d="M3252.323,790.1c-44.089,19.027-49.892,56.716-50.294,98.434h155.662c2.52-46.332-8.216-81.556-60.866-102.158C3281.617,796.18,3267.647,798.4,3252.323,790.1Z" transform="translate(-3202.028 -684.169)" fill="#ffd7c5" style="isolation: isolate"/>
          <path id="Tracé_288" data-name="Tracé 288" d="M3250.327,778.035c-20.193,1.046-34.2,9.864-41.2,27.47-5.988,15.944,19.192,45.7,37.5,50.281-7.437-13.959-15.479-36.83-7.746-50.281,5.457-9.237,10.97-15.294,14.127-24.92" transform="translate(-3194.043 -694.918)" fill="#9c636a"/>
          <path id="Tracé_289" data-name="Tracé 289" d="M3220,774.758c11.445,64.4,52.65,62.249,64.1,0L3247.47,749Z" transform="translate(-3178.862 -732.348)" fill="#ffb49d" style="isolation: isolate"/>
          <path id="Tracé_290" data-name="Tracé 290" d="M3246.563,742.379c36.627-4.578,47.39,16.4,47.315,46.342a72.027,72.027,0,0,1-40.447-25.74c-6.385,12.142-18.312,21.017-34.338,27.47-6.249-28.008,2.475-44.369,27.47-48.072" transform="translate(-3182.533 -741.751)" fill="#9c636a" style="isolation: isolate"/>
          <ellipse id="Ellipse_185" data-name="Ellipse 185" cx="3.434" cy="4.578" rx="3.434" ry="4.578" transform="translate(57.162 46.411)" fill="#9c636a" style="isolation: isolate"/>
          <ellipse id="Ellipse_186" data-name="Ellipse 186" cx="3.434" cy="4.578" rx="3.434" ry="4.578" transform="translate(82.343 46.411)" fill="#9c636a" style="isolation: isolate"/>
          <path id="Tracé_291" data-name="Tracé 291" stroke="#efa08e" d="M3239.772,770.522a13.919,13.919,0,0,1,2.289,9.157" fill="none" transform="translate(-3153.372 -704.603)" stroke-linecap="round" stroke-linejoin="round" stroke-width="1" style="isolation: isolate"/>
          <path id="Rectangle_2181" data-name="Rectangle 2181" d="M0,0H9.817a0,0,0,0,1,0,0V.218A4.908,4.908,0,0,1,4.908,5.126h0A4.908,4.908,0,0,1,0,.218V0A0,0,0,0,1,0,0Z" transform="translate(68.06 71.044)" fill="#fff"/>
          <path id="Tracé_292" data-name="Tracé 292" stroke="#efa08e" d="M3229.82,770.436a13.913,13.913,0,0,0-2.29,9.157" fill="none" transform="translate(-3169.256 -704.714)" stroke-linecap="round" stroke-linejoin="round" stroke-width="1" style="isolation: isolate"/>
          <rect id="Rectangle_2182" data-name="Rectangle 2182" width="2.289" height="9.157" rx="0.5" transform="translate(70.897 55.567)" fill="#efa08e" style="isolation: isolate"/>
        </g>
      </g>
    </g>
    <path id="Tracé_425" data-name="Tracé 425" d="M3538,10146.893s138.959-74.443,324.262-74.443,199.094,68.176,409.27,74.443,265.637-49.367,431.435-49.367c96.826,0,201.857,29.571,201.857,29.571v297.6H3538Z" transform="translate(-3538.823 -6086)" fill="#fcc9b0"/>
  </g>
</svg>
