<svg xmlns="http://www.w3.org/2000/svg" width="135" height="135.28" viewBox="0 0 135 135.28">
  <g id="Groupe_800" data-name="Groupe 800" transform="translate(-1015 -1805)">
    <g id="Groupe_685" data-name="Groupe 685" transform="translate(-6 292)">
      <rect id="Rectangle_2207" data-name="Rectangle 2207" width="135" height="135" rx="22" transform="translate(1021 1513)" fill="#fcc9b0"/>
    </g>
    <g id="Groupe_641" data-name="Groupe 641" transform="translate(1049.779 1842.995)">
      <g id="Groupe_605" data-name="Groupe 605" transform="translate(0 0)">
        <g id="Calque_26" data-name="Calque 26" transform="translate(17.404 7.927)">
          <path id="Tracé_285" data-name="Tracé 285" d="M3218,764.256c3.87,14.62,9.416,22.564,16.97,22.5,8.242.519,14.329-6.9,17.9-23.592l-4.359-13.077L3226.717,749,3218,764.256h0" transform="translate(-3217.999 -749)" fill="#9c636a"/>
        </g>
        <g id="Calque_27" data-name="Calque 27">
          <path id="Tracé_286" data-name="Tracé 286" d="M3228.388,778.18c.714,4.652-1.11,8.111-4.359,10.9,3.269,9.808,15.225,7.628,22.853,0-3.482-3.07-4.873-6.89-4.327-13.077Z" transform="translate(-3200.055 -738.65)" fill="#ffb49d"/>
          <path id="Tracé_287" data-name="Tracé 287" d="M3225.971,788.146c-20.988,9.058-23.75,27-23.942,46.859h74.1c1.2-22.056-3.911-38.824-28.975-48.632C3239.917,791.041,3233.266,792.1,3225.971,788.146Z" transform="translate(-3202.028 -737.719)" fill="#ffd7c5" style="isolation: isolate"/>
          <path id="Tracé_288" data-name="Tracé 288" d="M3228.266,778.035c-9.613.5-16.28,4.7-19.616,13.077-2.851,7.59,9.136,21.757,17.854,23.936-3.541-6.645-7.369-17.533-3.687-23.936,2.6-4.4,5.222-7.281,6.725-11.863" transform="translate(-3201.472 -738.467)" fill="#9c636a"/>
          <path id="Tracé_289" data-name="Tracé 289" d="M3220,761.262c5.448,30.655,25.064,29.633,30.513,0L3233.077,749Z" transform="translate(-3200.416 -741.073)" fill="#ffb49d" style="isolation: isolate"/>
          <path id="Tracé_290" data-name="Tracé 290" d="M3231.152,742.05c17.436-2.18,22.56,7.809,22.524,22.061a34.287,34.287,0,0,1-19.254-12.253c-3.04,5.78-8.717,10-16.347,13.077-2.975-13.333,1.178-21.121,13.077-22.885" transform="translate(-3200.671 -741.751)" fill="#9c636a" style="isolation: isolate"/>
          <ellipse id="Ellipse_185" data-name="Ellipse 185" cx="1.635" cy="2.179" rx="1.635" ry="2.179" transform="translate(27.212 22.094)" fill="#9c636a" style="isolation: isolate"/>
          <ellipse id="Ellipse_186" data-name="Ellipse 186" cx="1.635" cy="2.179" rx="1.635" ry="2.179" transform="translate(39.199 22.094)" fill="#9c636a" style="isolation: isolate"/>
          <path id="Tracé_291" data-name="Tracé 291" stroke="#efa08e" d="M3239.771,770.522a6.627,6.627,0,0,1,1.09,4.359" fill="none" transform="translate(-3198.641 -739.141)" stroke-linecap="round" stroke-linejoin="round" stroke-width="1" style="isolation: isolate"/>
          <path id="Rectangle_2181" data-name="Rectangle 2181" d="M0,0H4.673a0,0,0,0,1,0,0V.1A2.337,2.337,0,0,1,2.337,2.44h0A2.337,2.337,0,0,1,0,.1V0A0,0,0,0,1,0,0Z" transform="translate(32.4 33.82)" fill="#fff"/>
          <path id="Tracé_292" data-name="Tracé 292" stroke="#efa08e" d="M3228.578,770.436a6.62,6.62,0,0,0-1.09,4.359" fill="none" transform="translate(-3199.747 -739.149)" stroke-linecap="round" stroke-linejoin="round" stroke-width="1" style="isolation: isolate"/>
          <rect id="Rectangle_2182" data-name="Rectangle 2182" width="1.09" height="4.359" rx="0.5" transform="translate(33.75 26.453)" fill="#efa08e" style="isolation: isolate"/>
        </g>
      </g>
    </g>
    <circle id="Ellipse_241" data-name="Ellipse 241" cx="4" cy="4" r="4" transform="translate(1124 1877)" fill="#ff9f8b"/>
    <circle id="Ellipse_242" data-name="Ellipse 242" cx="2" cy="2" r="2" transform="translate(1048 1877)" fill="#ffefd4"/>
    <ellipse id="Ellipse_240" data-name="Ellipse 240" cx="3.5" cy="3" rx="3.5" ry="3" transform="translate(1048 1830)" fill="#ffd7c5"/>
    <circle id="Ellipse_243" data-name="Ellipse 243" cx="3" cy="3" r="3" transform="translate(1118 1835)" fill="#ffefd4"/>
    <circle id="Ellipse_244" data-name="Ellipse 244" cx="4.5" cy="4.5" r="4.5" transform="translate(1034 1865)" fill="#c2736c"/>
    <rect id="Rectangle_2288" data-name="Rectangle 2288" width="4" height="16" rx="2" transform="translate(1081 1815)" fill="#c2736c"/>
    <rect id="Rectangle_2289" data-name="Rectangle 2289" width="4.153" height="15.78" rx="2.076" transform="matrix(0.848, 0.53, -0.53, 0.848, 1107.429, 1820.553)" fill="#ffefd4"/>
    <rect id="Rectangle_2290" data-name="Rectangle 2290" width="4.153" height="15.78" rx="2.076" transform="matrix(0.358, -0.934, 0.934, 0.358, 1038.763, 1850.709)" fill="#ff9f8b"/>
    <rect id="Rectangle_2291" data-name="Rectangle 2291" width="4.153" height="15.78" rx="2.076" transform="translate(1113.336 1856.364) rotate(-111)" fill="#c2736c"/>
  </g>
</svg>
