<svg xmlns="http://www.w3.org/2000/svg" width="24.542" height="24.542" viewBox="0 0 24.542 24.542">
  <path id="Icon_awesome-pencil-alt" data-name="Icon awesome-pencil-alt" d="M23.868,6.813l-2.21,2.21a.576.576,0,0,1-.815,0L15.522,3.7a.576.576,0,0,1,0-.815l2.21-2.21a2.306,2.306,0,0,1,3.255,0l2.881,2.881A2.3,2.3,0,0,1,23.868,6.813ZM13.624,4.786,1.036,17.374.02,23.2A1.152,1.152,0,0,0,1.352,24.53l5.824-1.021L19.764,10.921a.576.576,0,0,0,0-.815L14.444,4.786a.582.582,0,0,0-.82,0ZM5.949,16.3a.668.668,0,0,1,0-.949l7.382-7.382a.671.671,0,0,1,.949.949L6.9,16.3a.668.668,0,0,1-.949,0Zm-1.73,4.031h2.3v1.74l-3.092.542L1.937,21.117l.542-3.092h1.74Z" transform="translate(-0.002 -0.005)" fill="#543776"/>
</svg>
