<svg id="Groupe_631" data-name="Groupe 631" xmlns="http://www.w3.org/2000/svg" width="48.656" height="34.202" viewBox="0 0 48.656 34.202">
  <path id="Union_4" data-name="Union 4" d="M10.616,19.575C10.616,18.22-2.2,16.52.33,13.72c1.531-1.694,8-.6,13.505-1.663a10.6,10.6,0,0,0,3.912-1.9,5.281,5.281,0,0,1-1.2-3.352A5.5,5.5,0,0,1,22.132,1.4a5.71,5.71,0,0,1,2.545.594A2.511,2.511,0,0,1,27.017,0a2.635,2.635,0,0,1,2.443,2.793,2.738,2.738,0,0,1-1.9,2.724,5.3,5.3,0,0,1,.159,1.289,5.366,5.366,0,0,1-2.532,4.531,18.7,18.7,0,0,1,2.532,9.952c0,7.132-3.125,12.913-6.979,12.913S10.616,26.706,10.616,19.575Z" transform="translate(19.195)" fill="#c2736c"/>
  <path id="Union_5" data-name="Union 5" d="M0,14.486A13.612,13.612,0,0,1,1.844,7.239,3.907,3.907,0,0,1,0,3.939,4,4,0,0,1,4.066,0,4,4,0,0,1,8.133,3.939,3.883,3.883,0,0,1,6.676,6.96c.54.725,1.175,1.374,1.928,1.33,3.615-.212,8.5-3.732,9.721-2.378,1.842,2.039-5.874,6.339-5.874,7.326,0,5.193-4.562,10.651-7.368,10.651S0,19.679,0,14.486Z" transform="translate(0 9.266)" fill="#533a78"/>
</svg>
