<svg xmlns="http://www.w3.org/2000/svg" width="462.127" height="208.037" viewBox="0 0 462.127 208.037">
  <g id="Groupe_779" data-name="Groupe 779" transform="translate(-494 -2944)">
    <g id="Groupe_768" data-name="Groupe 768" transform="translate(0 -25)">
      <g id="Groupe_766" data-name="Groupe 766" transform="translate(-31.5)">
        <rect id="Rectangle_2268" data-name="Rectangle 2268" width="88" height="15" transform="translate(768.5 3062)" fill="#fcc9b0"/>
        <g id="Groupe_717" data-name="Groupe 717" transform="translate(-0.5 1639)">
          <circle id="Ellipse_240" data-name="Ellipse 240" cx="8.5" cy="8.5" r="8.5" transform="translate(635 1330)" fill="#ffd7c5"/>
          <circle id="Ellipse_241" data-name="Ellipse 241" cx="11" cy="11" r="11" transform="translate(705 1473)" fill="#ff9f8b"/>
          <circle id="Ellipse_242" data-name="Ellipse 242" cx="5.5" cy="5.5" r="5.5" transform="translate(646 1462)" fill="#533a74"/>
          <circle id="Ellipse_243" data-name="Ellipse 243" cx="7.5" cy="7.5" r="7.5" transform="translate(826 1370)" fill="#ffefd4"/>
          <circle id="Ellipse_244" data-name="Ellipse 244" cx="7.5" cy="7.5" r="7.5" transform="translate(526 1399)" fill="#c2736c"/>
          <text id="Nous_contacter" data-name="Nous contacter" transform="translate(594 1429)" font-size="46" font-family="SegoeUI, Segoe UI"><tspan x="0" y="0">Nous contacter</tspan></text>
        </g>
      </g>
    </g>
    <g id="Groupe_711" data-name="Groupe 711" transform="translate(834 3066.189)">
      <path id="Union_4" data-name="Union 4" d="M26.649,49.134c0-3.4-32.169-7.669-25.818-14.7,3.843-4.251,20.081-1.516,33.9-4.175,3.621-.7,6.967-2.764,9.82-4.767a13.256,13.256,0,0,1-3.014-8.412A13.8,13.8,0,0,1,55.553,3.5a14.333,14.333,0,0,1,6.389,1.491A6.3,6.3,0,0,1,67.815,0c3.389,0,6.133,3.138,6.133,7.01a6.873,6.873,0,0,1-4.78,6.838,13.3,13.3,0,0,1,.4,3.235,13.469,13.469,0,0,1-6.356,11.373c3.883,5.945,6.356,14.928,6.356,24.979,0,17.9-7.843,32.413-17.519,32.413S26.649,67.032,26.649,49.134Z" transform="translate(48.179)" fill="#c2736c"/>
      <path id="Union_5" data-name="Union 5" d="M0,36.361C0,29.039,1.8,22.5,4.629,18.17A9.808,9.808,0,0,1,0,9.888,10.052,10.052,0,0,1,10.207,0,10.052,10.052,0,0,1,20.414,9.888a9.745,9.745,0,0,1-3.656,7.582c1.357,1.821,2.95,3.449,4.839,3.339,9.073-.531,21.33-9.367,24.4-5.97,4.623,5.118-14.743,15.912-14.743,18.388,0,13.035-11.45,26.734-18.5,26.734S0,49.4,0,36.361Z" transform="translate(0 23.258)" fill="#533a78"/>
    </g>
  </g>
</svg>
