<svg xmlns="http://www.w3.org/2000/svg" xmlns:xlink="http://www.w3.org/1999/xlink" width="368.552" height="542.253" viewBox="0 0 368.552 542.253">
  <defs>
    <clipPath id="clip-path">
      <circle id="Ellipse_205" data-name="Ellipse 205" cx="26" cy="26" r="26" transform="translate(-0.138 0.182)" fill="#fcc9b0"/>
    </clipPath>
    <clipPath id="clip-path-2">
      <ellipse id="Ellipse_209" data-name="Ellipse 209" cx="20.5" cy="19.5" rx="20.5" ry="19.5" transform="translate(0.118 0.415)" fill="#ffefd4"/>
    </clipPath>
    <clipPath id="clip-path-3">
      <rect id="Rectangle_2281" data-name="Rectangle 2281" width="89" height="115" transform="translate(0.304 -0.257)" fill="#fff"/>
    </clipPath>
  </defs>
  <g id="Groupe_805" data-name="Groupe 805" transform="translate(-214.448 -873.374)">
    <circle id="Ellipse_276" data-name="Ellipse 276" cx="175.5" cy="175.5" r="175.5" transform="translate(232 1045)" fill="#fff"/>
    <g id="Groupe_778" data-name="Groupe 778" transform="translate(-574.16 899.684) rotate(-16)">
      <rect id="Rectangle_2280" data-name="Rectangle 2280" width="218" height="472" transform="translate(759 266.934)" fill="#fff"/>
      <path id="Rectangle_2203" data-name="Rectangle 2203" d="M42,0H176a42,42,0,0,1,42,42V428a0,0,0,0,1,0,0H0a0,0,0,0,1,0,0V42A42,42,0,0,1,42,0Z" transform="translate(759 310.934)" fill="#fff"/>
      <g id="Groupe_610" data-name="Groupe 610" transform="translate(873.743 484.657)">
        <rect id="Rectangle_311" data-name="Rectangle 311" width="92" height="126" rx="20" transform="translate(0.257 0.276)" fill="#fcc9b0"/>
      </g>
      <text id="Profil" transform="translate(884 516.933)" fill="#26222b" font-size="14" font-family="MuktaMahee-Bold, Mukta Mahee" font-weight="700"><tspan x="0" y="0">Profil</tspan></text>
      <g id="Groupe_564" data-name="Groupe 564" transform="translate(770.256 347.45)">
        <rect id="Rectangle_311-2" data-name="Rectangle 311" width="92" height="126" rx="20" transform="translate(-0.256 0.484)" fill="#533a74"/>
      </g>
      <text id="Journal" transform="translate(807 379.934)" fill="#fff" font-size="14" font-family="MuktaMahee-Bold, Mukta Mahee" font-weight="700"><tspan x="-21.91" y="0">Journal</tspan></text>
      <g id="Groupe_608" data-name="Groupe 608" transform="translate(873.743 347.45)">
        <rect id="Rectangle_311-3" data-name="Rectangle 311" width="90" height="126" rx="20" transform="translate(0.257 0.484)" fill="#c2736c"/>
      </g>
      <text id="Visio_et_messages" data-name="Visio et
messages" transform="translate(884 378.934)" fill="#fff" font-size="13" font-family="MuktaMahee-Bold, Mukta Mahee" font-weight="700"><tspan x="0" y="0">Visio et</tspan><tspan x="0" y="13">messages</tspan></text>
      <g id="Groupe_609" data-name="Groupe 609" transform="translate(771.418 484.657)">
        <rect id="Rectangle_311-4" data-name="Rectangle 311" width="91" height="126" rx="20" transform="translate(-0.418 0.276)" fill="#ffefd4"/>
      </g>
      <text id="Amis" transform="translate(800 516.933)" fill="#26222b" font-size="14" font-family="MuktaMahee-Bold, Mukta Mahee" font-weight="700"><tspan x="-15.386" y="0">Amis</tspan></text>
      <text id="Gramophone" transform="translate(866 318.934)" fill="#533a78" font-size="14" font-family="MuktaMahee-ExtraBold, Mukta Mahee" font-weight="800"><tspan x="-39.242" y="0">Gramo</tspan><tspan y="0" font-family="MuktaMahee-Regular, Mukta Mahee" font-weight="400">phone</tspan></text>
      <g id="Groupe_de_masques_5" data-name="Groupe de masques 5" transform="translate(905.138 406.751)" clip-path="url(#clip-path)">
        <g id="Groupe_634" data-name="Groupe 634" transform="translate(0 0)">
          <circle id="Ellipse_202" data-name="Ellipse 202" cx="26" cy="26" r="26" transform="translate(-0.138 0.182)" fill="#543776"/>
          <g id="Groupe_633" data-name="Groupe 633" transform="translate(6.344 6.363)">
            <path id="Tracé_333" data-name="Tracé 333" d="M3308.832,757.813c2.2,8.306,5.349,12.819,9.641,12.784,4.682.294,8.14-3.923,10.17-13.4l-2.476-7.429-12.382-.619-4.953,8.668h0" transform="translate(-3298.95 -744.744)" fill="#ff9f8b" style="isolation: isolate"/>
            <path id="Tracé_334" data-name="Tracé 334" d="M3317.347,777.548a6.431,6.431,0,0,1-2.477,6.191c1.857,5.572,8.649,4.334,12.983,0-1.978-1.745-2.768-3.915-2.459-7.429Z" transform="translate(-3301.25 -755.091)" fill="#ffd7c5" style="isolation: isolate"/>
            <path id="Tracé_335" data-name="Tracé 335" d="M3306.473,787.689c-11.924,5.145-13.493,15.338-13.6,26.621h42.1c.681-12.531-2.222-22.057-16.461-27.629C3314.4,789.334,3310.618,789.934,3306.473,787.689Z" transform="translate(-3292.871 -759.042)" fill="#ff9f8b" style="isolation: isolate"/>
            <path id="Tracé_336" data-name="Tracé 336" d="M3310.842,756.275c3.1,17.415,14.239,16.835,17.335,0-1.8-3.555-5.372-5.653-9.906-6.966Z" transform="translate(-3299.716 -744.806)" fill="#ffd7c5" style="isolation: isolate"/>
            <path id="Tracé_337" data-name="Tracé 337" d="M3323.935,750.652c-1.727,3.284-11.03,3.38-15.364,5.126-1.691-7.575.823-11.2,7.583-12.205,9.905-1.238,12.214,3.489,12.2,11.586C3325.9,754.474,3325.761,754.411,3323.935,750.652Z" transform="translate(-3298.657 -742.547)" fill="#ff9f8b" style="isolation: isolate"/>
            <ellipse id="Ellipse_203" data-name="Ellipse 203" cx="0.929" cy="1.238" rx="0.929" ry="1.238" transform="translate(15.46 12.551)" fill="#9c636a" style="isolation: isolate"/>
            <ellipse id="Ellipse_204" data-name="Ellipse 204" cx="0.929" cy="1.238" rx="0.929" ry="1.238" transform="translate(22.27 12.551)" fill="#9c636a" style="isolation: isolate"/>
            <path id="Tracé_338" data-name="Tracé 338" stroke="#efa08e" d="M3330.613,770.831a3.762,3.762,0,0,1,.619,2.476" fill="none" transform="translate(-3307.246 -753.004)" stroke-linecap="round" stroke-linejoin="round" stroke-width="0.5" style="isolation: isolate"/>
            <path id="Tracé_339" data-name="Tracé 339" stroke="#efa08e" d="M3318.935,770.744a3.762,3.762,0,0,0-.619,2.476" fill="none" transform="translate(-3302.555 -752.971)" stroke-linecap="round" stroke-linejoin="round" stroke-width="0.5" style="isolation: isolate"/>
            <rect id="Rectangle_2216" data-name="Rectangle 2216" width="0.619" height="2.476" rx="0.31" transform="translate(19.174 15.027)" fill="#efa08e" style="isolation: isolate"/>
            <path id="Tracé_340" data-name="Tracé 340" d="M3333.982,745.327c1.379-9.375,13.649,4.136,3.722,5.377" transform="translate(-3308.529 -742.036)" fill="#ff9f8b" style="isolation: isolate"/>
            <path id="Tracé_341" data-name="Tracé 341" d="M3324.877,800.825l-5.879-.812c-2.416-.087-2.686,4.151.4,2.93Z" transform="translate(-3302.113 -764.119)" fill="none" stroke="#ffd7c5" stroke-linecap="round" stroke-linejoin="round" stroke-width="2"/>
            <path id="Tracé_342" data-name="Tracé 342" d="M3329.246,800.164l4.77.9c1.967.147,2.321-3.65-.23-2.642Z" transform="translate(-3306.725 -763.447)" fill="none" stroke="#ffd7c5" stroke-linecap="round" stroke-linejoin="round" stroke-width="2"/>
            <path id="Tracé_343" data-name="Tracé 343" d="M3326.492,801.342c-3.026,1.558-4.358,3-3.013,4.376,1.392,1.547.1,4.352-1.466,3.3" transform="translate(-3303.971 -764.626)" fill="none" stroke="#ffd7c5" stroke-linecap="round" stroke-linejoin="round" stroke-width="2"/>
            <path id="Tracé_344" data-name="Tracé 344" d="M3329.48,801.537c2.132,1.611,3.606,3.049,3.012,4.376-1.222,1.524-.317,2.637.894,2.637" transform="translate(-3306.816 -764.7)" fill="none" stroke="#ffd7c5" stroke-linecap="round" stroke-linejoin="round" stroke-width="2"/>
            <path id="Rectangle_2217" data-name="Rectangle 2217" d="M0,0H2.655a0,0,0,0,1,0,0V.059A1.327,1.327,0,0,1,1.327,1.386h0A1.327,1.327,0,0,1,0,.059V0A0,0,0,0,1,0,0Z" transform="translate(18.171 18.978)" fill="#fff"/>
          </g>
        </g>
      </g>
      <g id="Groupe_de_masques_6" data-name="Groupe de masques 6" transform="translate(881.882 426.519)" clip-path="url(#clip-path-2)">
        <g id="Groupe_638" data-name="Groupe 638" transform="translate(0 0)">
          <ellipse id="Ellipse_206" data-name="Ellipse 206" cx="20.5" cy="19.5" rx="20.5" ry="19.5" transform="translate(0.118 0.415)" fill="#ffefd4"/>
          <g id="Groupe_637" data-name="Groupe 637" transform="translate(4.425 4.496)">
            <g id="Groupe_636" data-name="Groupe 636" transform="translate(0 0)">
              <g id="Groupe_635" data-name="Groupe 635">
                <g id="Calque_26" data-name="Calque 26" transform="translate(7.77 3.539)">
                  <path id="Tracé_345" data-name="Tracé 345" d="M3218,755.811c1.728,6.527,4.2,10.074,7.576,10.047,3.68.232,6.4-3.083,7.993-10.533l-1.946-5.838-9.73-.486L3218,755.811h0" transform="translate(-3217.999 -749)" fill="#9c636a"/>
                </g>
                <g id="Calque_27" data-name="Calque 27">
                  <path id="Tracé_346" data-name="Tracé 346" d="M3225.975,776.973a5.053,5.053,0,0,1-1.946,4.865c1.46,4.379,6.8,3.406,10.2,0-1.555-1.371-2.176-3.076-1.932-5.838Z" transform="translate(-3213.325 -759.325)" fill="#ffb49d"/>
                  <path id="Tracé_347" data-name="Tracé 347" d="M3212.718,787.164c-9.371,4.044-10.6,12.055-10.69,20.921h33.084c.536-9.847-1.746-17.334-12.937-21.713C3218.944,788.457,3215.975,788.929,3212.718,787.164Z" transform="translate(-3202.028 -764.651)" fill="#ffd7c5" style="isolation: isolate"/>
                  <path id="Tracé_348" data-name="Tracé 348" d="M3217.171,778.035c-4.292.222-7.268,2.1-8.757,5.838-1.273,3.389,4.079,9.714,7.971,10.687-1.581-2.967-3.29-7.828-1.646-10.687,1.16-1.963,2.331-3.25,3-5.3" transform="translate(-3205.208 -760.369)" fill="#9c636a"/>
                  <path id="Tracé_349" data-name="Tracé 349" d="M3220,754.474c2.433,13.687,11.19,13.23,13.623,0L3225.839,749Z" transform="translate(-3211.256 -745.461)" fill="#ffb49d" style="isolation: isolate"/>
                  <path id="Tracé_350" data-name="Tracé 350" d="M3223.4,741.885c7.784-.973,10.072,3.487,10.056,9.849a15.306,15.306,0,0,1-8.6-5.471c-1.357,2.581-3.892,4.467-7.3,5.838-1.328-5.953.526-9.43,5.839-10.217" transform="translate(-3209.792 -741.751)" fill="#9c636a" style="isolation: isolate"/>
                  <ellipse id="Ellipse_207" data-name="Ellipse 207" cx="0.73" cy="0.973" rx="0.73" ry="0.973" transform="translate(12.149 9.864)" fill="#9c636a" style="isolation: isolate"/>
                  <ellipse id="Ellipse_208" data-name="Ellipse 208" cx="0.73" cy="0.973" rx="0.73" ry="0.973" transform="translate(17.501 9.864)" fill="#9c636a" style="isolation: isolate"/>
                  <path id="Tracé_351" data-name="Tracé 351" stroke="#efa08e" d="M3239.771,770.522a2.957,2.957,0,0,1,.487,1.946" fill="none" transform="translate(-3221.408 -756.511)" stroke-linecap="round" stroke-linejoin="round" stroke-width="1" style="isolation: isolate"/>
                  <path id="Rectangle_2218" data-name="Rectangle 2218" d="M0,0H2.086a0,0,0,0,1,0,0V.046A1.043,1.043,0,0,1,1.043,1.089h0A1.043,1.043,0,0,1,0,.046V0A0,0,0,0,1,0,0Z" transform="translate(14.465 15.099)" fill="#fff"/>
                  <path id="Tracé_352" data-name="Tracé 352" stroke="#efa08e" d="M3227.954,770.436a2.959,2.959,0,0,0-.487,1.946" fill="none" transform="translate(-3215.081 -756.467)" stroke-linecap="round" stroke-linejoin="round" stroke-width="1" style="isolation: isolate"/>
                  <rect id="Rectangle_2219" data-name="Rectangle 2219" width="0.487" height="1.946" rx="0.243" transform="translate(15.068 11.81)" fill="#efa08e" style="isolation: isolate"/>
                </g>
              </g>
            </g>
          </g>
        </g>
      </g>
      <g id="Groupe_641" data-name="Groupe 641" transform="translate(896.042 543.753)">
        <g id="Groupe_605" data-name="Groupe 605" transform="translate(0 0)">
          <g id="Calque_26-2" data-name="Calque 26" transform="translate(12.201 5.557)">
            <path id="Tracé_285" data-name="Tracé 285" d="M3218,759.695c2.713,10.249,6.6,15.818,11.9,15.774,5.778.364,10.044-4.84,12.549-16.538l-3.056-9.167L3224.111,749,3218,759.695h0" transform="translate(-3217.999 -749)" fill="#9c636a"/>
          </g>
          <g id="Calque_27-2" data-name="Calque 27">
            <path id="Tracé_286" data-name="Tracé 286" d="M3227.085,777.528a7.936,7.936,0,0,1-3.056,7.639c2.292,6.875,10.673,5.347,16.02,0-2.441-2.152-3.416-4.83-3.033-9.167Z" transform="translate(-3207.223 -749.817)" fill="#ffb49d"/>
            <path id="Tracé_287" data-name="Tracé 287" d="M3218.813,787.616c-14.713,6.35-16.65,18.927-16.784,32.849h51.947c.841-15.462-2.742-27.216-20.312-34.092C3228.589,789.646,3223.927,790.386,3218.813,787.616Z" transform="translate(-3202.028 -752.266)" fill="#ffd7c5" style="isolation: isolate"/>
            <path id="Tracé_288" data-name="Tracé 288" d="M3222.273,778.035c-6.739.349-11.412,3.292-13.751,9.167-2,5.321,6.4,15.252,12.516,16.78-2.482-4.658-5.166-12.291-2.585-16.78,1.821-3.082,3.66-5.1,4.714-8.316" transform="translate(-3203.49 -750.298)" fill="#9c636a"/>
            <path id="Tracé_289" data-name="Tracé 289" d="M3220,757.6c3.819,21.49,17.57,20.773,21.39,0l-12.223-8.6Z" transform="translate(-3206.271 -743.443)" fill="#ffb49d" style="isolation: isolate"/>
            <path id="Tracé_290" data-name="Tracé 290" d="M3226.965,741.961c12.223-1.528,15.815,5.474,15.79,15.465a24.034,24.034,0,0,1-13.5-8.59c-2.131,4.052-6.111,7.014-11.459,9.167-2.086-9.347.826-14.806,9.167-16.042" transform="translate(-3205.597 -741.751)" fill="#9c636a" style="isolation: isolate"/>
            <ellipse id="Ellipse_185" data-name="Ellipse 185" cx="1.146" cy="1.528" rx="1.146" ry="1.528" transform="translate(19.076 15.488)" fill="#9c636a" style="isolation: isolate"/>
            <ellipse id="Ellipse_186" data-name="Ellipse 186" cx="1.146" cy="1.528" rx="1.146" ry="1.528" transform="translate(27.479 15.488)" fill="#9c636a" style="isolation: isolate"/>
            <path id="Tracé_291" data-name="Tracé 291" stroke="#efa08e" d="M3239.771,770.522a4.644,4.644,0,0,1,.764,3.056" fill="none" transform="translate(-3210.939 -748.524)" stroke-linecap="round" stroke-linejoin="round" stroke-width="1" style="isolation: isolate"/>
            <path id="Rectangle_2181" data-name="Rectangle 2181" d="M0,0H3.276a0,0,0,0,1,0,0V.073A1.638,1.638,0,0,1,1.638,1.711h0A1.638,1.638,0,0,1,0,.073V0A0,0,0,0,1,0,0Z" transform="translate(22.713 23.708)" fill="#fff"/>
            <path id="Tracé_292" data-name="Tracé 292" stroke="#efa08e" d="M3228.241,770.436a4.644,4.644,0,0,0-.764,3.056" fill="none" transform="translate(-3208.03 -748.503)" stroke-linecap="round" stroke-linejoin="round" stroke-width="1" style="isolation: isolate"/>
            <rect id="Rectangle_2182" data-name="Rectangle 2182" width="0.764" height="3.056" rx="0.382" transform="translate(23.659 18.544)" fill="#efa08e" style="isolation: isolate"/>
          </g>
        </g>
      </g>
      <g id="Groupe_de_masques_16" data-name="Groupe de masques 16" transform="translate(887.696 624.191)" clip-path="url(#clip-path-3)">
        <g id="Groupe_607" data-name="Groupe 607" transform="translate(3.106 0.406)">
          <g id="Groupe_605-2" data-name="Groupe 605" transform="translate(0 0)">
            <g id="Calque_26-3" data-name="Calque 26" transform="translate(24.401 10.894)">
              <path id="Tracé_285-2" data-name="Tracé 285" d="M3218,769.966c5.426,20.092,13.2,31.009,23.792,30.924,11.556.713,20.09-9.489,25.1-32.422l-6.111-17.971-30.557-1.5L3218,769.966h0" transform="translate(-3217.999 -749)" fill="#9c636a"/>
            </g>
            <g id="Calque_27-3" data-name="Calque 27" transform="translate(0 0)">
              <path id="Tracé_286-2" data-name="Tracé 286" d="M3230.14,779c1,6.393-1.556,11.147-6.111,14.976,4.583,13.478,21.346,10.483,32.041,0-4.882-4.219-6.831-9.469-6.067-17.971Z" transform="translate(-3190.417 -724.671)" fill="#ffb49d"/>
              <path id="Tracé_287-2" data-name="Tracé 287" d="M3235.6,788.809c-29.427,12.448-33.3,37.1-33.568,64.4h103.894c1.682-30.311-5.484-53.355-40.624-66.833C3255.149,792.789,3245.824,794.24,3235.6,788.809Z" transform="translate(-3202.028 -719.51)" fill="#ffd7c5" style="isolation: isolate"/>
              <path id="Tracé_288-2" data-name="Tracé 288" d="M3236.324,778.035c-13.477.684-22.824,6.453-27.5,17.971-4,10.431,12.809,29.9,25.032,32.895-4.963-9.132-10.331-24.095-5.17-32.895,3.642-6.043,7.321-10.005,9.429-16.3" transform="translate(-3198.759 -723.659)" fill="#9c636a"/>
              <path id="Tracé_289-2" data-name="Tracé 289" d="M3220,765.851c7.639,42.129,35.14,40.724,42.78,0L3238.334,749Z" transform="translate(-3192.543 -738.106)" fill="#ffb49d" style="isolation: isolate"/>
              <path id="Tracé_290-2" data-name="Tracé 290" d="M3236.781,742.162c24.446-3,31.63,10.732,31.58,30.318a48.194,48.194,0,0,1-27-16.839c-4.261,7.943-12.222,13.75-22.918,17.971-4.171-18.323,1.652-29.026,18.334-31.45" transform="translate(-3194.045 -741.751)" fill="#9c636a" style="isolation: isolate"/>
              <ellipse id="Ellipse_185-2" data-name="Ellipse 185" cx="2.292" cy="2.995" rx="2.292" ry="2.995" transform="translate(38.152 30.362)" fill="#9c636a" style="isolation: isolate"/>
              <ellipse id="Ellipse_186-2" data-name="Ellipse 186" cx="2.292" cy="2.995" rx="2.292" ry="2.995" transform="translate(54.958 30.362)" fill="#9c636a" style="isolation: isolate"/>
              <path id="Tracé_291-2" data-name="Tracé 291" stroke="#efa08e" d="M3239.771,770.522a8.965,8.965,0,0,1,1.528,5.99" fill="none" transform="translate(-3182.106 -727.397)" stroke-linecap="round" stroke-linejoin="round" stroke-width="1" style="isolation: isolate"/>
              <path id="Rectangle_2181-2" data-name="Rectangle 2181" d="M0,0H6.552a0,0,0,0,1,0,0V.078A3.276,3.276,0,0,1,3.276,3.354h0A3.276,3.276,0,0,1,0,.078V0A0,0,0,0,1,0,0Z" transform="translate(45.425 46.478)" fill="#fff"/>
              <path id="Tracé_292-2" data-name="Tracé 292" stroke="#efa08e" d="M3229.032,770.436a8.959,8.959,0,0,0-1.528,5.99" fill="none" transform="translate(-3188.609 -727.44)" stroke-linecap="round" stroke-linejoin="round" stroke-width="1" style="isolation: isolate"/>
              <rect id="Rectangle_2182-2" data-name="Rectangle 2182" width="1.528" height="5.99" rx="0.5" transform="translate(47.319 36.353)" fill="#efa08e" style="isolation: isolate"/>
            </g>
          </g>
        </g>
      </g>
      <g id="Groupe_746" data-name="Groupe 746" transform="translate(771.418 624.191)">
        <g id="Groupe_566" data-name="Groupe 566" transform="translate(0 0)">
          <path id="Rectangle_311-5" data-name="Rectangle 311" d="M20,0h99a20,20,0,0,1,20,20V69a0,0,0,0,1,0,0H20A20,20,0,0,1,0,49V20A20,20,0,0,1,20,0Z" transform="translate(-0.418 -0.257)" fill="#fcc9b0"/>
        </g>
        <text id="Tu_peux_activer_la_commande_vocale_en_disant_Hey_Gramie_" data-name="Tu peux activer la commande vocale en disant &quot;Hey Gramie !&quot;" transform="translate(11.999 8.661)" fill="#a35751" font-size="12" font-family="MuktaMahee-SemiBold, Mukta Mahee" font-weight="600"><tspan x="12.086" y="14">Tu peux activer la </tspan><tspan x="3.122" y="29">commande vocale en </tspan><tspan x="3.08" y="44">disant</tspan><tspan y="44" fill="#c2736c"> </tspan><tspan y="44" fill="#543776">&quot;Hey Gramie !&quot;</tspan></text>
      </g>
      <g id="Groupe_758" data-name="Groupe 758" transform="translate(782.451 407.032) rotate(-14)">
        <g id="Groupe_756" data-name="Groupe 756" transform="translate(0 0)">
          <rect id="Rectangle_2282" data-name="Rectangle 2282" width="37.261" height="53.229" transform="translate(0 0)" fill="#ffd7c5"/>
          <rect id="Rectangle_2283" data-name="Rectangle 2283" width="21.636" height="2.607" transform="translate(7.728 19.784)" fill="#9c636a"/>
          <rect id="Rectangle_2284" data-name="Rectangle 2284" width="21.636" height="2.607" transform="translate(7.728 25.676)" fill="#9c636a"/>
          <rect id="Rectangle_2285" data-name="Rectangle 2285" width="21.636" height="2.607" transform="translate(7.728 31.568)" fill="#9c636a"/>
          <rect id="Rectangle_2286" data-name="Rectangle 2286" width="21.636" height="2.607" transform="translate(7.728 37.503)" fill="#9c636a"/>
          <rect id="Rectangle_2287" data-name="Rectangle 2287" width="21.636" height="6.421" transform="translate(7.728 10.099)" fill="#9c636a"/>
        </g>
      </g>
      <g id="Groupe_759" data-name="Groupe 759" transform="translate(812.788 391.255)">
        <g id="Groupe_756-2" data-name="Groupe 756" transform="translate(0 0)">
          <rect id="Rectangle_2282-2" data-name="Rectangle 2282" width="37.261" height="17.133" rx="8" transform="translate(0 0)" fill="#fff"/>
        </g>
      </g>
      <path id="Polygone_3" data-name="Polygone 3" d="M2.911,0,5.822,9.9H0Z" transform="matrix(-0.839, -0.545, 0.545, -0.839, 839.315, 414.047)" fill="#fff"/>
      <circle id="Ellipse_241" data-name="Ellipse 241" cx="3" cy="3" r="3" transform="translate(948 566.933)" fill="#ff9f8b"/>
      <ellipse id="Ellipse_242" data-name="Ellipse 242" cx="1.5" cy="2" rx="1.5" ry="2" transform="translate(895 566.933)" fill="#ffefd4"/>
      <circle id="Ellipse_240" data-name="Ellipse 240" cx="2" cy="2" r="2" transform="translate(895 534.933)" fill="#ffd7c5"/>
      <ellipse id="Ellipse_243" data-name="Ellipse 243" cx="2" cy="2.5" rx="2" ry="2.5" transform="translate(944 537.933)" fill="#ffefd4"/>
      <ellipse id="Ellipse_244" data-name="Ellipse 244" cx="3" cy="3.5" rx="3" ry="3.5" transform="translate(885 558.933)" fill="#c2736c"/>
      <rect id="Rectangle_2288" data-name="Rectangle 2288" width="3" height="12" rx="1.5" transform="translate(918 523.933)" fill="#c2736c"/>
      <rect id="Rectangle_2289" data-name="Rectangle 2289" width="2.911" height="11.062" rx="1.455" transform="matrix(0.848, 0.53, -0.53, 0.848, 936.455, 528.022)" fill="#ffefd4"/>
      <rect id="Rectangle_2290" data-name="Rectangle 2290" width="2.911" height="11.062" rx="1.455" transform="matrix(0.358, -0.934, 0.934, 0.358, 888.32, 549.162)" fill="#ff9f8b"/>
      <rect id="Rectangle_2291" data-name="Rectangle 2291" width="2.911" height="11.062" rx="1.455" transform="translate(940.596 553.126) rotate(-111)" fill="#c2736c"/>
      <g id="Groupe_771" data-name="Groupe 771" transform="translate(780.185 559.448)">
        <g id="Groupe_765" data-name="Groupe 765" transform="translate(0)">
          <g id="Groupe_764" data-name="Groupe 764">
            <path id="Tracé_525" data-name="Tracé 525" d="M4856.646,397.866c2.086,7.881,5.075,12.163,9.147,12.129,4.443.279,7.724-3.722,9.65-12.717l-2.35-7.049-11.748-.587-4.7,8.223h0" transform="translate(-4815.415 -385.466)" fill="#ff9f8b" style="isolation: isolate"/>
            <path id="Tracé_526" data-name="Tracé 526" d="M4871.044,445a6.1,6.1,0,0,1-2.349,5.874c1.762,5.287,8.206,4.112,12.318,0-1.876-1.655-2.626-3.714-2.332-7.049Z" transform="translate(-4823.916 -423.698)" fill="#ffd7c5" style="isolation: isolate"/>
            <path id="Tracé_527" data-name="Tracé 527" d="M4824.33,465.479c-7.627.5-20.278,1.176-18.279,7.085,1.71,5.056,5.432,12.1,5.374,18.173h39.942c.647-11.889-2.108-20.927-15.617-26.214C4831.847,467.04,4828.262,467.609,4824.33,465.479Z" transform="translate(-4779.567 -438.299)" fill="#c2736c" style="isolation: isolate"/>
            <path id="Tracé_528" data-name="Tracé 528" d="M4860.658,396.576c2.937,16.524,13.511,15.973,16.447,0-1.7-3.373-5.1-5.364-9.4-6.61Z" transform="translate(-4818.245 -385.694)" fill="#ffd7c5" style="isolation: isolate"/>
            <path id="Tracé_529" data-name="Tracé 529" d="M4870.171,385.035c-1.639,3.115-10.464,3.207-14.578,4.863-1.6-7.187.781-10.629,7.2-11.58,9.4-1.175,11.589,3.31,11.57,10.992C4872.032,388.661,4871.9,388.6,4870.171,385.035Z" transform="translate(-4814.331 -377.345)" fill="#ff9f8b" style="isolation: isolate"/>
            <ellipse id="Ellipse_286" data-name="Ellipse 286" cx="0.881" cy="1.175" rx="0.881" ry="1.175" transform="translate(46.525 11.908)" fill="#9c636a" style="isolation: isolate"/>
            <ellipse id="Ellipse_287" data-name="Ellipse 287" cx="0.881" cy="1.175" rx="0.881" ry="1.175" transform="translate(52.986 11.908)" fill="#9c636a" style="isolation: isolate"/>
            <path id="Tracé_530" data-name="Tracé 530" stroke="#efa08e" d="M4900.1,432.9a3.576,3.576,0,0,1,.587,2.35" fill="none" transform="translate(-4846.075 -415.988)" stroke-linecap="round" stroke-linejoin="round" stroke-width="0.5" style="isolation: isolate"/>
            <path id="Rectangle_2292" data-name="Rectangle 2292" d="M0,0H3.524a0,0,0,0,1,0,0V0A1.762,1.762,0,0,1,1.762,1.762h0A1.762,1.762,0,0,1,0,0V0A0,0,0,0,1,0,0Z" transform="translate(48.874 17.782)" fill="#fff"/>
            <path id="Tracé_531" data-name="Tracé 531" stroke="#efa08e" d="M4876.13,432.729a3.577,3.577,0,0,0-.588,2.35" fill="none" transform="translate(-4828.732 -415.866)" stroke-linecap="round" stroke-linejoin="round" stroke-width="0.5" style="isolation: isolate"/>
            <rect id="Rectangle_2293" data-name="Rectangle 2293" width="0.587" height="2.35" rx="0.294" transform="translate(50.049 14.258)" fill="#efa08e" style="isolation: isolate"/>
            <path id="Tracé_532" data-name="Tracé 532" d="M4906.825,378.579c1.309-8.9,12.95,3.924,3.531,5.1" transform="translate(-4850.819 -375.457)" fill="#ff9f8b" style="isolation: isolate"/>
            <path id="Tracé_533" data-name="Tracé 533" d="M4880.556,491.888l-5.577-.77c-2.292-.082-2.549,3.938.374,2.78Z" transform="translate(-4827.101 -457.062)" fill="none" stroke="#ffd7c5" stroke-linecap="round" stroke-linejoin="round" stroke-width="1"/>
            <path id="Tracé_534" data-name="Tracé 534" d="M4897.375,489.414l4.524.851c1.868.139,2.2-3.463-.218-2.507Z" transform="translate(-4844.152 -454.578)" fill="none" stroke="#ffd7c5" stroke-linecap="round" stroke-linejoin="round" stroke-width="1"/>
            <path id="Tracé_535" data-name="Tracé 535" d="M4887.194,493.77c-2.871,1.478-4.134,2.85-2.859,4.152,1.32,1.468.1,4.13-1.39,3.127" transform="translate(-4833.97 -458.934)" fill="none" stroke="#ffd7c5" stroke-linecap="round" stroke-linejoin="round" stroke-width="1"/>
            <path id="Tracé_536" data-name="Tracé 536" d="M4897.836,494.159c2.024,1.529,3.422,2.893,2.859,4.152-1.161,1.445-.3,2.5.847,2.5" transform="translate(-4844.477 -459.208)" fill="none" stroke="#ffd7c5" stroke-linecap="round" stroke-linejoin="round" stroke-width="1"/>
            <path id="Tracé_537" data-name="Tracé 537" d="M4756.326,398.337c2.086,7.881,5.075,12.163,9.147,12.129,4.442.279,7.723-3.722,9.649-12.717l-2.35-7.049-11.749-.587-4.7,8.224h0" transform="translate(-4744.633 -385.798)" fill="#9c636a"/>
            <path id="Tracé_538" data-name="Tracé 538" d="M4756.305,398.013c2.086,7.881,5.075,12.163,9.147,12.129,4.442.279,7.723-3.722,9.649-12.717l-2.351-7.049L4761,389.79l-4.7,8.223h0" transform="translate(-4744.618 -385.57)" fill="#9c636a"/>
            <path id="Tracé_539" data-name="Tracé 539" d="M4770.7,445.152a6.1,6.1,0,0,1-2.349,5.874c1.762,5.286,8.207,4.112,12.319,0-1.877-1.655-2.626-3.714-2.333-7.049Z" transform="translate(-4753.119 -423.802)" fill="#ffb49d"/>
            <path id="Tracé_540" data-name="Tracé 540" d="M4737.371,465.627c-11.313,4.882-12.8,14.553-12.905,25.258h39.942c.647-11.889-2.107-20.927-15.618-26.214C4744.888,467.188,4741.3,467.757,4737.371,465.627Z" transform="translate(-4722.154 -438.403)" fill="#543776" style="isolation: isolate"/>
            <path id="Tracé_541" data-name="Tracé 541" d="M4747.626,448.037c-5.182.268-8.775,2.531-10.573,7.049-1.536,4.091,4.925,11.728,9.625,12.9-1.909-3.582-3.973-9.451-1.988-12.9,1.4-2.37,2.815-3.924,3.625-6.394" transform="translate(-4730.872 -426.667)" fill="#9c636a"/>
            <path id="Tracé_542" data-name="Tracé 542" d="M4760.316,396.723c2.938,16.524,13.511,15.973,16.448,0l-9.4-6.61Z" transform="translate(-4747.448 -385.798)" fill="#ffb49d" style="isolation: isolate"/>
            <path id="Tracé_543" data-name="Tracé 543" d="M4763.941,381.041c-1.638,3.116-4.7,5.393-8.811,7.049-1.6-7.187.635-11.385,7.049-12.335,9.4-1.175,11.768,4.066,11.748,11.748A17.311,17.311,0,0,1,4763.941,381.041Z" transform="translate(-4743.438 -375.551)" fill="#9c636a" style="isolation: isolate"/>
            <ellipse id="Ellipse_288" data-name="Ellipse 288" cx="0.881" cy="1.175" rx="0.881" ry="1.175" transform="translate(16.98 11.952)" fill="#9c636a" style="isolation: isolate"/>
            <ellipse id="Ellipse_289" data-name="Ellipse 289" cx="0.881" cy="1.175" rx="0.881" ry="1.175" transform="translate(23.441 11.952)" fill="#9c636a" style="isolation: isolate"/>
            <path id="Tracé_544" data-name="Tracé 544" stroke="#efa08e" d="M4799.76,433.05a3.572,3.572,0,0,1,.587,2.35" fill="none" transform="translate(-4775.278 -416.092)" stroke-linecap="round" stroke-linejoin="round" stroke-width="0.5" style="isolation: isolate"/>
            <path id="Rectangle_2294" data-name="Rectangle 2294" d="M0,0H3.524a0,0,0,0,1,0,0V0A1.762,1.762,0,0,1,1.762,1.762h0A1.762,1.762,0,0,1,0,0V0A0,0,0,0,1,0,0Z" transform="translate(19.329 17.826)" fill="#fff"/>
            <path id="Tracé_545" data-name="Tracé 545" stroke="#efa08e" d="M4775.789,432.877a3.567,3.567,0,0,0-.587,2.35" fill="none" transform="translate(-4757.936 -415.97)" stroke-linecap="round" stroke-linejoin="round" stroke-width="0.5" style="isolation: isolate"/>
            <rect id="Rectangle_2295" data-name="Rectangle 2295" width="0.587" height="2.35" rx="0.294" transform="translate(20.504 14.301)" fill="#efa08e" style="isolation: isolate"/>
            <path id="Tracé_546" data-name="Tracé 546" d="M4716.612,502.088c.235-2.826.523-5.607,1.876-7.5,1.958-.883,3.634.029,5.226,1.474.931,1.523.563,3.172-1.207,4.958A8.737,8.737,0,0,1,4716.612,502.088Z" transform="translate(-4716.612 -459.263)" fill="#ffd7c5" style="isolation: isolate"/>
            <path id="Tracé_547" data-name="Tracé 547" d="M4947,503.436c-.234-2.826-.523-5.607-1.876-7.5-1.958-.882-3.634.029-5.226,1.474-.931,1.522-.564,3.172,1.206,4.958A8.741,8.741,0,0,0,4947,503.436Z" transform="translate(-4873.805 -460.214)" fill="#ffb49d" style="isolation: isolate"/>
          </g>
        </g>
      </g>
      <g id="Groupe_748" data-name="Groupe 748" transform="translate(747 255.59)">
        <path id="Union_36" data-name="Union 36" d="M44,495A43.963,43.963,0,0,1,0,451V44A43.963,43.963,0,0,1,44,0H197a43.963,43.963,0,0,1,44,44V451a43.963,43.963,0,0,1-44,44ZM30.786,14.3A30.974,30.974,0,0,0,11.852,42.866V452.134a30.976,30.976,0,0,0,31,31H198.712a30.975,30.975,0,0,0,31-31V42.866a30.975,30.975,0,0,0-31-31H179.336A16.941,16.941,0,0,1,162.548,26.6h-84.1A16.942,16.942,0,0,1,61.663,11.866H42.853A30.8,30.8,0,0,0,30.786,14.3Z" transform="translate(0 0.343)" fill="#393939"/>
      </g>
    </g>
  </g>
</svg>
