<svg xmlns="http://www.w3.org/2000/svg" viewBox="0 0 480 544"><defs><style>.cls-1{fill:#ffefd4;}.cls-2{fill:#9c636a;}.cls-3{fill:#9b6d75;}.cls-4{fill:#fc8d7e;}.cls-5{fill:#ff9f8b;}.cls-6{fill:#ff9583;}.cls-7{fill:#ffb49d;}.cls-8{fill:#ffd7c5;}.cls-9{fill:#efa08e;}.cls-10,.cls-16{fill:none;stroke-linecap:round;stroke-linejoin:round;}.cls-10{stroke:#efa08e;stroke-width:0.5px;}.cls-11,.cls-21{fill:#fff;}.cls-12{fill:#f9cbb9;}.cls-13{fill:#f9c9b7;}.cls-14{fill:#fcd1c0;}.cls-15{fill:#efbba8;}.cls-16{stroke:#f9cbb9;}.cls-17{fill:#fcccb9;}.cls-18{fill:#fcc9b0;}.cls-19{fill:#c2736c;}.cls-20,.cls-21{isolation:isolate;}.cls-21{font-size:28px;font-family:MuktaMahee-ExtraBold, Mukta Mahee;font-weight:800;}.cls-22{letter-spacing:-0.01em;}.cls-23{letter-spacing:0em;}.cls-24{letter-spacing:-0.03em;}.cls-25{letter-spacing:0em;}.cls-26{letter-spacing:0.01em;}.cls-27{letter-spacing:-0.01em;}</style></defs><g id="Calque_2" data-name="Calque 2"><g id="Calque_1-2" data-name="Calque 1"><g id="Groupe_760" data-name="Groupe 760"><g id="Groupe_745" data-name="Groupe 745"><g id="Groupe_744" data-name="Groupe 744"><circle id="Ellipse_271" data-name="Ellipse 271" class="cls-1" cx="303" cy="166" r="166"/><g id="Groupe_743" data-name="Groupe 743"><g id="Calque_32" data-name="Calque 32"><path id="Tracé_434" data-name="Tracé 434" class="cls-2" d="M66.58,343.48,53.17,421.25c-.91,7.14,12.59,7.64,14.08,2l18.1-81.79Z"/><path id="Tracé_435" data-name="Tracé 435" class="cls-2" d="M299.3,343.77l13.4,77.77c.92,7.14-12.58,7.64-14.07,2l-18.1-81.79Z"/><path id="Tracé_436" data-name="Tracé 436" class="cls-3" d="M110.65,308.14,97.24,385.91c-.91,7.15,12.59,7.64,14.08,2l18.1-81.79Z"/><path id="Tracé_437" data-name="Tracé 437" class="cls-3" d="M248,313.36l13.41,77.77c.92,7.14-12.58,7.64-14.08,2l-18.1-81.79Z"/></g><g id="Calque_31" data-name="Calque 31"><path id="Tracé_438" data-name="Tracé 438" class="cls-4" d="M40.43,340.13c66.75,17,299,56.6,283.58-43.58L59.88,268.4,40.44,340.13"/></g><path id="Tracé_439" data-name="Tracé 439" class="cls-4" d="M85.35,239.57,70.6,175.21c-44.61-6-58,.23-60.33,26.82-2.54,35.39,13.33,86.33,30.17,138.1l47.6-55Z"/><path id="Tracé_440" data-name="Tracé 440" class="cls-5" d="M314.84,212c-4.24,34.23-242.23,42.28-242.9-5.32C59,69.18,124.38,90.45,197.22,82.93,330.71,78,339.43,131,314.84,212Z"/><path id="Tracé_441" data-name="Tracé 441" class="cls-6" d="M85.35,213.43c62.34-9.3,141.42-6.8,226.59,0,10.84,34.15,4.08,67.34-19.44,107.26-6,17.43-240.67,13.41-243.35-8.72C44.82,267.57,45.31,239.17,85.35,213.43Z"/><g id="Calque_28" data-name="Calque 28"><path id="Tracé_442" data-name="Tracé 442" class="cls-2" d="M187.64,41c6.88,26,16.73,40.09,30.15,40,14.64.92,25.45-12.27,31.8-41.91l-7.75-23.23-38.71-1.94L187.64,41h0"/><path id="Tracé_443" data-name="Tracé 443" class="cls-7" d="M207.44,68.17c1.27,8.27-2,14.41-7.74,19.36,5.81,17.42,27.05,13.55,40.6,0-6.18-5.45-9-13.76-8-24.75Z"/><path id="Tracé_444" data-name="Tracé 444" class="cls-8" d="M202.21,84.34c-37.29,16.09-37.94,47.85-38.28,83.13,2,30,10.49,40.23,15,56.5,26.29,11,53.08,7.86,97,4.86,4.11-12.42,8.26-33.82,12.41-55.85,2.13-39.19-6.86-72.5-51.38-89.92C220,93.7,204.6,97.3,202.21,84.34Z"/><path id="Tracé_445" data-name="Tracé 445" class="cls-2" d="M204.34,70.44c-17.07.89-28.92,8.34-34.84,23.23-5.07,13.48,16.23,38.65,31.71,42.52-6.29-11.8-13.09-31.14-6.55-42.52,4.62-7.81,9.28-12.93,12-21.07"/><path id="Tracé_446" data-name="Tracé 446" class="cls-9" d="M194.3,37.45c8.08,51.16,37.17,49.46,45.25,0L213.69,17Z"/><path id="Tracé_447" data-name="Tracé 447" class="cls-7" d="M191.54,34.51c5.05,53.18,42.82,50.6,52.49,1.6L214.76,14.24Z"/><path id="Tracé_448" data-name="Tracé 448" class="cls-2" d="M216.7,18.11c-5.4,10.27-15.48,17.77-29,23.23-5.28-23.69,2.1-37.52,23.23-40.65,31-3.88,38.78,13.4,38.72,38.71A57.06,57.06,0,0,1,216.7,18.11Z"/><ellipse id="Ellipse_267" data-name="Ellipse 267" class="cls-2" cx="201.88" cy="44.28" rx="2.9" ry="3.87"/><ellipse id="Ellipse_268" data-name="Ellipse 268" class="cls-2" cx="222.5" cy="43.16" rx="2.9" ry="3.87"/><path id="Tracé_449" data-name="Tracé 449" class="cls-10" d="M222.25,54.52a11.77,11.77,0,0,1,1.93,7.74"/><path id="Rectangle_2275" data-name="Rectangle 2275" class="cls-11" d="M205.83,58.33h9.52a4.76,4.76,0,0,1-4.76,4.76h0a4.76,4.76,0,0,1-4.76-4.76Z"/><path id="Tracé_450" data-name="Tracé 450" class="cls-10" d="M204.71,55.19a11.71,11.71,0,0,0-1.93,7.74"/><path id="Tracé_451" data-name="Tracé 451" class="cls-2" d="M138.42,107.52h16.5l7,33-16.5-1Z"/><path id="Tracé_452" data-name="Tracé 452" class="cls-7" d="M180.34,153.93l-8.64-4.48-9.26-19.07c-2-4.08-6.68-2.86-4.24,1.5l3.31,5.64-11.19-7.63c-6.35-3.42-11.77,4.9-7.27,11.54,9.46,12.27,20.4,19.71,33.17,21.12Z"/><rect id="Rectangle_2276" data-name="Rectangle 2276" class="cls-9" x="207.05" y="46.67" width="1.94" height="7.74" rx="0.5"/><path id="Tracé_453" data-name="Tracé 453" class="cls-12" d="M244,134.38c-.9,8.86-2.16,17-1.53,26-23.79-6.32-42.9-8.73-63.09-11.07a32.29,32.29,0,0,0-6.24,17.45c28.16,20,57.71,38.1,72.05,44.62,13.4,6.26,25.91,9.58,34.06-3,5.65-11.74.36-18.56,1.49-30.53Z"/><path id="Tracé_454" data-name="Tracé 454" class="cls-8" d="M246,136.65a154.05,154.05,0,0,0-.85,26.56c-23.65-5.63-46.49-10.46-66.57-12.55a22.9,22.9,0,0,0-5.33,14.45c28,17.82,56.88,36.41,71.14,42.23,13.27,5.64,24.6,8.37,33.85-2.66A85.62,85.62,0,0,0,288.38,173Z"/><path id="Tracé_455" data-name="Tracé 455" class="cls-2" d="M276,228.83c-6.38,36.57-22.32,65.28-102.8,40.91-47.39-14-37.92-29.44,5.75-45.77"/></g><g id="Calque_30" data-name="Calque 30"><path id="Tracé_456" data-name="Tracé 456" class="cls-4" d="M333,238.53c5.23-26.3,3.33-49.2-14.75-64.35-44.61-6-58,.22-60.34,26.81-2.53,35.39,13.34,86.34,30.17,138.1L324,296.55Z"/></g><g id="Calque_33" data-name="Calque 33"><path id="Tracé_457" data-name="Tracé 457" class="cls-13" d="M366.14,368.09c22.12-.68-50.41-147.11-64.29-147.71,10.46,61.18,33.28,117.66,64.29,147.71"/><path id="Tracé_458" data-name="Tracé 458" class="cls-8" d="M364.85,364.59c23.43,7-1.51-171.81-15.85-177.28-10.38,67.79-6.17,135,15.85,177.28"/><path id="Tracé_459" data-name="Tracé 459" class="cls-14" d="M363.47,373.2c20.58,13.2,46-165.55,33.72-174.77-28.7,62.29-43.2,128-33.72,174.77"/><path id="Tracé_460" data-name="Tracé 460" class="cls-14" d="M364.25,371c15.47,18.93,69.67-80.28,63.58-141.1-46.05,51.26-58.09,93.71-63.58,141.1"/><path id="Tracé_461" data-name="Tracé 461" class="cls-15" d="M360.55,371.81c20.81,12.84,39.6-98.63,14-154.13-26.77,63.5-24.28,107.55-14,154.13"/><path id="Tracé_462" data-name="Tracé 462" class="cls-15" d="M361.56,374.22c19-5.72-42.92-96.44-91.88-117,27,63,56.59,91.86,91.88,117"/><rect id="Rectangle_2277" data-name="Rectangle 2277" class="cls-6" x="324.82" y="353.69" width="82.03" height="72.59" rx="36"/></g><g id="Calque_35" data-name="Calque 35"><path id="Tracé_463" data-name="Tracé 463" class="cls-8" d="M76,218.82C70.18,230,94.84,236,163.85,234.55c22.39-37.41-17.5-67.51-65-41.78Z"/><path id="Tracé_464" data-name="Tracé 464" class="cls-8" d="M70.28,197.25c4.07-7.7,11.34-10.68,21-10.1,5.87-12,9.12-10.85,9.83,3,17.76,10.53,12.49,20.45-5.46,30-22.72,6.17-32.26,2.5-30.58-9.56l1.36-4.91C55.25,196.89,54.08,192.88,70.28,197.25Z"/><path id="Tracé_465" data-name="Tracé 465" class="cls-12" d="M160.46,229.83c-14.06,8.45-36.2,1.86-64.17-15.54-4.37-2.64-12.16,1-11.2,5.28,6.28,27.86,63.35,31.67,78.1,15.84l.18.19"/><path id="Tracé_466" data-name="Tracé 466" class="cls-8" d="M162.74,231.14c-14.05,7.87-36.2,1.73-64.17-14.47-4.37-2.46-12.11-.48-11.2,4.91,6.28,25.94,63.35,29.49,78.1,14.75l.18.18"/><path id="Tracé_467" data-name="Tracé 467" class="cls-16" d="M141.16,203.33c-20.17-3.17-22.2,18.17-2.88,23.93"/><ellipse id="Ellipse_269" data-name="Ellipse 269" class="cls-2" cx="75.98" cy="209.54" rx="4.9" ry="1.44" transform="translate(-87.4 57.92) rotate(-27.21)"/><ellipse id="Ellipse_270" data-name="Ellipse 270" class="cls-2" cx="91.91" cy="201.42" rx="4.9" ry="1.44" transform="translate(-81.92 64.31) rotate(-27.21)"/><path id="Tracé_468" data-name="Tracé 468" class="cls-2" d="M84.68,213.74l1.23-2.6,3,.82"/><path id="Tracé_469" data-name="Tracé 469" class="cls-2" d="M85.91,208.81,85.44,210l-1.33-.29A1.81,1.81,0,0,1,85.91,208.81Z"/></g><g id="Calque_34" data-name="Calque 34"><path id="Tracé_470" data-name="Tracé 470" class="cls-8" d="M259.11,244.48c-19-9.14-36.8-14.09-49.47-1.65-29.3-18.89-58.69-26.55-88.22-17.31C102,224.18,84.57,232.14,68.66,247c-37,43.07-39.74,115.7-37.1,192.92,20.64,5.46,54,17.49,90.63,6.78,48.8-14.28,100.35-11.32,152.58-7.6C266.7,367.39,285.75,260.69,259.11,244.48Z"/><path id="Tracé_471" data-name="Tracé 471" class="cls-17" d="M83.28,343.84c6.33-48.25,17.12-84.1,38.15-118.32a40.1,40.1,0,0,0-14.32.58c-16.64,32.52-25.38,79.72-32.49,130Z"/><path id="Tracé_472" data-name="Tracé 472" class="cls-17" d="M171,360.6c6.33-48.25,17.6-83.55,38.63-117.77-4.07-2.63-8.17-5.19-12.49-7.44-16.64,32.52-27.4,87.29-34.52,137.53Z"/></g><g id="Groupe_741" data-name="Groupe 741"><rect id="Rectangle_2278" data-name="Rectangle 2278" class="cls-1" x="56" y="21" width="93" height="63" rx="14"/><path id="Polygone_1" data-name="Polygone 1" class="cls-1" d="M140,95.31,122.6,81.13l10.75-7.25Z"/></g><g id="Groupe_742" data-name="Groupe 742"><path id="Tracé_363" data-name="Tracé 363" class="cls-2" d="M85.67,40.36C88.49,51,92.53,56.79,98,56.74c6,.38,10.43-5,13-17.17l-3.17-9.52L92,29.26l-6.34,11.1h0"/><path id="Tracé_364" data-name="Tracé 364" class="cls-8" d="M93.64,52.39a8.23,8.23,0,0,1-3.18,7.93c2.38,7.14,11.09,5.56,16.64,0-2.53-2.23-3.55-5-3.15-9.52Z"/><path id="Tracé_365" data-name="Tracé 365" class="cls-5" d="M122.63,83.55c.87-16.06,1.48-17.38-16.77-24.52-4.56,5.83-9.37,6.7-15.42,1.29-15.28,6.6-14.92,8.77-15.06,23.23"/><path id="Tracé_366" data-name="Tracé 366" class="cls-8" d="M87.27,38.31c4,22.32,18.24,21.57,22.21,0-2.3-4.55-6.88-7.24-12.69-8.93Z"/><path id="Tracé_367" data-name="Tracé 367" class="cls-2" d="M95.76,24.93c13.09-1.59,16.11,5,16.08,15.37-3.84-2.08-2.48-5.73-2.71-6.12-2.28,4.22-17.66,4.16-23.4,6.4-2.23-9.71,1.09-14.36,10-15.65"/><ellipse id="Ellipse_217" data-name="Ellipse 217" class="cls-2" cx="94.01" cy="41.28" rx="1.19" ry="1.59"/><ellipse id="Ellipse_218" data-name="Ellipse 218" class="cls-2" cx="102.74" cy="41.28" rx="1.19" ry="1.59"/><path id="Rectangle_2226" data-name="Rectangle 2226" class="cls-9" d="M98,42.87h0a.39.39,0,0,1,.39.4v2.38A.39.39,0,0,1,98,46h0a.4.4,0,0,1-.4-.39V43.27A.4.4,0,0,1,98,42.87Z"/><path id="Rectangle_2231" data-name="Rectangle 2231" class="cls-11" d="M96.1,48.16H100a1.52,1.52,0,0,1-1.52,1.51h-.9a1.52,1.52,0,0,1-1.51-1.51Z"/></g><path id="Icon_awesome-phone-alt" data-name="Icon awesome-phone-alt" class="cls-5" d="M139.79,55.53l-4.61-2a1,1,0,0,0-1.15.28l-2,2.5A15.29,15.29,0,0,1,124.7,49l2.49-2a1,1,0,0,0,.29-1.15l-2-4.61a1,1,0,0,0-1.13-.57l-4.28,1a1,1,0,0,0-.77,1,19.1,19.1,0,0,0,19.1,19.1,1,1,0,0,0,1-.77l1-4.28a1,1,0,0,0-.57-1.13Z"/></g></g><circle id="Ellipse_272" data-name="Ellipse 272" class="cls-5" cx="63" cy="24.5" r="7.5"/><circle id="Ellipse_273" data-name="Ellipse 273" class="cls-18" cx="167" cy="12.5" r="5.5"/><circle id="Ellipse_274" data-name="Ellipse 274" class="cls-19" cx="178.5" cy="25" r="4"/><circle id="Ellipse_275" data-name="Ellipse 275" class="cls-8" cx="89" cy="83.5" r="4.5"/></g><rect id="Rectangle_2279" data-name="Rectangle 2279" class="cls-19" y="435" width="480" height="109" rx="23"/><g id="Restez_en_contact_avec_les_personnes_qui_comptent_" data-name="Restez en contact avec les personnes qui comptent " class="cls-20"><text class="cls-21" transform="translate(100.32 481)">Rest<tspan class="cls-22" x="54.29" y="0">e</tspan><tspan class="cls-23" x="68.68" y="0">z en </tspan><tspan class="cls-24" x="124.23" y="0">c</tspan><tspan x="136.5" y="0">o</tspan><tspan class="cls-25" x="152.34" y="0">n</tspan><tspan x="168.28" y="0">ta</tspan><tspan class="cls-26" x="193.48" y="0">c</tspan><tspan class="cls-23" x="206.72" y="0">t </tspan><tspan class="cls-25" x="224.08" y="0">a</tspan><tspan class="cls-27" x="238.28" y="0">v</tspan><tspan x="252.58" y="0">ec</tspan></text><text class="cls-21" transform="translate(61.73 516)">les personnes qui <tspan class="cls-24" x="223.32" y="0">c</tspan><tspan x="235.59" y="0">ompte</tspan><tspan class="cls-25" x="317.12" y="0">n</tspan><tspan x="333.05" y="0">t !</tspan></text></g><path id="Polygone_2" data-name="Polygone 2" class="cls-19" d="M132.88,398.63l-3,52.11-28.19-10.26Z"/></g></g></g></svg>