<svg xmlns="http://www.w3.org/2000/svg" width="81.085" height="18.844" viewBox="0 0 81.085 18.844">
  <g id="Groupe_839" data-name="Groupe 839" transform="translate(-199.915 -485.717)">
    <path id="Tracé_599" data-name="Tracé 599" d="M3202.129-18210.182h79.333" transform="translate(-3002.075 18705.553)" fill="none" stroke="#c1726c" stroke-width="3"/>
    <path id="Icon_ionic-ios-arrow-back" data-name="Icon ionic-ios-arrow-back" d="M13.9,15.613l5.82-7.124a1.562,1.562,0,0,0,0-1.9.967.967,0,0,0-1.557,0L11.571,14.66a1.57,1.57,0,0,0-.032,1.857l6.622,8.129a.968.968,0,0,0,1.557,0,1.562,1.562,0,0,0,0-1.9Z" transform="translate(188.664 479.523)" fill="#c2736c"/>
    <path id="Icon_ionic-ios-arrow-back-2" data-name="Icon ionic-ios-arrow-back" d="M17.394,15.613l-5.82-7.125a1.562,1.562,0,0,1,0-1.9.967.967,0,0,1,1.557,0l6.594,8.073a1.57,1.57,0,0,1,.032,1.857l-6.622,8.129a.968.968,0,0,1-1.557,0,1.562,1.562,0,0,1,0-1.9Z" transform="translate(260.955 479.523)" fill="#c2736c"/>
  </g>
</svg>
